<svg width="20" height="20" viewBox="0 0 20 20" fill="none" xmlns="http://www.w3.org/2000/svg">
<g clip-path="url(#clip0)">
<path d="M17.1732 5.13789C17.1549 4.92135 16.9725 4.75543 16.7552 4.75756H13.5779V3.55351C13.5779 1.59091 11.9868 0 10.0244 0C8.0618 0 6.47089 1.59091 6.47089 3.55351V4.75756H3.29363C3.07725 4.75837 2.89664 4.92266 2.87557 5.13789L1.78029 17.73C1.73048 18.3138 1.92775 18.8919 2.32442 19.3235C2.72092 19.755 3.28024 20.0004 3.86634 19.9999H16.1865C16.7726 20.0004 17.332 19.755 17.7285 19.3235C18.1251 18.8919 18.3226 18.3138 18.2728 17.73L17.1732 5.13789ZM7.30701 3.55351C7.30701 2.05274 8.52363 0.83612 10.0244 0.83612C11.5252 0.83612 12.7418 2.05274 12.7418 3.55351V4.75756H7.30701V3.55351ZM17.1105 18.7583C16.8741 19.0186 16.5381 19.1661 16.1865 19.1638H3.86209C3.5105 19.164 3.17507 19.0165 2.9373 18.7575C2.69969 18.4983 2.58162 18.1513 2.61216 17.801L3.67397 5.59368H6.47089V8.20231C5.79856 8.40922 5.3787 9.07664 5.48338 9.77232C5.5879 10.4678 6.18559 10.9822 6.88895 10.9822C7.5923 10.9822 8.18983 10.4678 8.29451 9.77232C8.39903 9.07664 7.97917 8.40922 7.30701 8.20231V5.58943H12.7418V8.20231C12.0695 8.40922 11.6496 9.07664 11.7543 9.77232C11.8588 10.4678 12.4565 10.9822 13.1598 10.9822C13.8632 10.9822 14.4607 10.4678 14.5654 9.77232C14.6699 9.07664 14.2501 8.40922 13.5779 8.20231V5.58943H16.3706L17.4324 17.7968C17.4667 18.1485 17.3496 18.4982 17.1105 18.7583ZM6.82624 8.97997C6.86788 8.98552 6.91001 8.98552 6.95166 8.97997C7.26079 9.01328 7.49007 9.28273 7.47341 9.59317C7.45659 9.90378 7.19988 10.1471 6.88895 10.1471C6.57785 10.1471 6.32114 9.90378 6.30448 9.59317C6.28782 9.28273 6.51694 9.01328 6.82624 8.97997ZM13.0971 8.97997C13.1388 8.98552 13.1809 8.98552 13.2226 8.97997C13.5317 9.01328 13.761 9.28273 13.7443 9.59317C13.7275 9.90378 13.4708 10.1471 13.1598 10.1471C12.8488 10.1471 12.592 9.90378 12.5754 9.59317C12.5587 9.28273 12.7878 9.01328 13.0971 8.97997Z" fill="#6C757D"/>
<g clip-path="url(#clip1)">
<path d="M17.2987 4.84501C17.2804 4.62847 17.098 4.46255 16.8807 4.46467H13.7034V3.26063C13.7034 1.29803 12.1123 -0.292885 10.1499 -0.292885C8.18729 -0.292885 6.59638 1.29803 6.59638 3.26063V4.46467H3.41912C3.20274 4.46549 3.02212 4.62977 3.00106 4.84501L1.90577 17.4371C1.85597 18.0209 2.05324 18.599 2.4499 19.0306C2.84641 19.4621 3.40573 19.7075 3.99183 19.7071H16.312C16.8981 19.7075 17.4574 19.4621 17.854 19.0306C18.2506 18.599 18.4481 18.0209 18.3982 17.4371L17.2987 4.84501ZM7.4325 3.26063C7.4325 1.75986 8.64912 0.543236 10.1499 0.543236C11.6507 0.543236 12.8673 1.75986 12.8673 3.26063V4.46467H7.4325V3.26063ZM17.236 18.4654C16.9995 18.7258 16.6636 18.8732 16.312 18.8709H3.98758C3.63599 18.8711 3.30056 18.7236 3.06279 18.4646C2.82518 18.2055 2.70711 17.8584 2.73765 17.5082L3.79946 5.30079H6.59638V7.90942C5.92405 8.11633 5.50419 8.78376 5.60887 9.47944C5.71339 10.175 6.31108 10.6894 7.01444 10.6894C7.71779 10.6894 8.31532 10.175 8.42 9.47944C8.52452 8.78376 8.10466 8.11633 7.4325 7.90942V5.29655H12.8673V7.90942C12.195 8.11633 11.7751 8.78376 11.8798 9.47944C11.9843 10.175 12.582 10.6894 13.2853 10.6894C13.9887 10.6894 14.5862 10.175 14.6909 9.47944C14.7954 8.78376 14.3756 8.11633 13.7034 7.90942V5.29655H16.4961L17.5579 17.5039C17.5922 17.8557 17.4751 18.2053 17.236 18.4654ZM6.95173 8.68708C6.99337 8.69263 7.0355 8.69263 7.07714 8.68708C7.38628 8.7204 7.61556 8.98985 7.5989 9.30029C7.58208 9.6109 7.32537 9.85422 7.01444 9.85422C6.70334 9.85422 6.44663 9.6109 6.42997 9.30029C6.41331 8.98985 6.64243 8.7204 6.95173 8.68708ZM13.2226 8.68708C13.2643 8.69263 13.3064 8.69263 13.348 8.68708C13.6572 8.7204 13.8865 8.98985 13.8698 9.30029C13.853 9.6109 13.5963 9.85422 13.2853 9.85422C12.9742 9.85422 12.7175 9.6109 12.7009 9.30029C12.6842 8.98985 12.9133 8.7204 13.2226 8.68708Z" fill="#6C757D"/>
</g>
</g>
<defs>
<clipPath id="clip0">
<rect width="20" height="20" fill="white"/>
</clipPath>
<clipPath id="clip1">
<rect width="20" height="20" fill="white" transform="translate(0.125488 -0.292885)"/>
</clipPath>
</defs>
</svg>
