<svg width="15" height="14" viewBox="0 0 15 14" fill="none" xmlns="http://www.w3.org/2000/svg">
<g clip-path="url(#clip0)">
<path d="M13.4411 2.75164L10.8161 0.126638C10.7336 0.0447433 10.6218 -0.000893409 10.5055 -0.00023716H3.50549C2.78061 -0.00023716 2.19299 0.58738 2.19299 1.31226V12.6873C2.19299 13.4121 2.78061 13.9998 3.50549 13.9998H12.2555C12.9804 13.9998 13.568 13.4121 13.568 12.6873V3.06226C13.5687 2.94597 13.523 2.83421 13.4411 2.75164ZM12.693 12.6873C12.693 12.9289 12.4971 13.1248 12.2555 13.1248H3.50549C3.26386 13.1248 3.06799 12.9289 3.06799 12.6873V1.31226C3.06799 1.07063 3.26386 0.874762 3.50549 0.874762H10.068V2.62476C10.068 3.10801 10.4597 3.49976 10.943 3.49976H12.693V12.6873Z" fill="#323232"/>
<path d="M5.69299 4.8125C4.96811 4.8125 4.38049 5.40012 4.38049 6.125C4.38049 6.84988 4.96811 7.4375 5.69299 7.4375C6.41788 7.4375 7.00549 6.84988 7.00549 6.125C7.00549 5.40014 6.41788 4.8125 5.69299 4.8125ZM5.69299 6.5625C5.45136 6.5625 5.25549 6.36664 5.25549 6.125C5.25549 5.88336 5.45136 5.6875 5.69299 5.6875C5.93463 5.6875 6.13049 5.88336 6.13049 6.125C6.13049 6.36664 5.93463 6.5625 5.69299 6.5625Z" fill="#323232"/>
<path d="M5.69299 9.1875C4.96811 9.1875 4.38049 9.77512 4.38049 10.5C4.38049 11.2249 4.96811 11.8125 5.69299 11.8125C6.41788 11.8125 7.00549 11.2249 7.00549 10.5C7.00549 9.77514 6.41788 9.1875 5.69299 9.1875ZM5.69299 10.9375C5.45136 10.9375 5.25549 10.7416 5.25549 10.5C5.25549 10.2584 5.45136 10.0625 5.69299 10.0625C5.93463 10.0625 6.13049 10.2584 6.13049 10.5C6.13049 10.7416 5.93463 10.9375 5.69299 10.9375Z" fill="#323232"/>
<path d="M11.3805 4.8125H7.88049V5.6875H11.3805V4.8125Z" fill="#323232"/>
<path d="M9.63049 6.5625H7.88049V7.4375H9.63049V6.5625Z" fill="#323232"/>
<path d="M11.3805 9.1875H7.88049V10.0625H11.3805V9.1875Z" fill="#323232"/>
<path d="M9.63049 10.9375H7.88049V11.8125H9.63049V10.9375Z" fill="#323232"/>
</g>
<defs>
<clipPath id="clip0">
<rect width="14" height="14" fill="white" transform="translate(0.880493)"/>
</clipPath>
</defs>
</svg>
