<svg width="20" height="20" viewBox="0 0 20 20" fill="none" xmlns="http://www.w3.org/2000/svg">
<path d="M15.8567 2.62039H14.0473V1.81094C14.0473 1.54905 13.7616 1.43002 13.4997 1.43002H12.0951C11.7618 0.477712 10.9285 0.00155677 9.97622 0.00155677C9.03439 -0.0338507 8.17773 0.543651 7.85733 1.43002H6.47649C6.2146 1.43002 5.95272 1.54905 5.95272 1.81094V2.62039H4.14329C3.07104 2.63182 2.19383 3.47768 2.14343 4.54879V18.1906C2.14343 19.2381 3.09574 20 4.14329 20H15.8567C16.9042 20 17.8565 19.2381 17.8565 18.1906V4.54884C17.8061 3.47768 16.9289 2.63182 15.8567 2.62039ZM6.90498 2.38233H8.21442C8.44299 2.35444 8.62659 2.18055 8.66678 1.9538C8.80777 1.33979 9.34645 0.899047 9.97622 0.88246C10.6002 0.901371 11.1307 1.34349 11.2618 1.9538C11.3045 2.18839 11.5002 2.36451 11.738 2.38233H13.095V4.28695H6.90498V2.38233ZM16.9042 18.1906C16.9042 18.7144 16.3805 19.0477 15.8567 19.0477H4.14329C3.61952 19.0477 3.09574 18.7144 3.09574 18.1906V4.54884C3.14432 4.00365 3.596 3.58272 4.14329 3.57274H5.95267V4.78694C5.97782 5.0537 6.20886 5.25325 6.47644 5.23931H13.4997C13.7722 5.25421 14.0105 5.05739 14.0473 4.78694V3.5727H15.8566C16.4039 3.58272 16.8556 4.0036 16.9042 4.54879V18.1906H16.9042Z" fill="#6C757D"/>
<path d="M8.16677 10.6436C7.98818 10.4554 7.69171 10.4447 7.50014 10.6198L5.97643 12.0721L5.33363 11.4054C5.15505 11.2172 4.85857 11.2066 4.667 11.3816C4.48258 11.5749 4.48258 11.8789 4.667 12.0721L5.6431 13.072C5.72758 13.1666 5.84962 13.2189 5.97639 13.2149C6.10198 13.2131 6.22178 13.1617 6.30968 13.072L8.16668 11.3102C8.35078 11.1414 8.36308 10.8552 8.19416 10.6711C8.1855 10.6615 8.17634 10.6524 8.16677 10.6436Z" fill="#6C757D"/>
<path d="M14.9996 11.6673H9.52388C9.2609 11.6673 9.04773 11.8805 9.04773 12.1435C9.04773 12.4064 9.2609 12.6196 9.52388 12.6196H14.9996C15.2626 12.6196 15.4758 12.4064 15.4758 12.1435C15.4758 11.8805 15.2626 11.6673 14.9996 11.6673Z" fill="#6C757D"/>
<path d="M8.16677 6.83437C7.98818 6.64612 7.69171 6.6355 7.50014 6.81058L5.97643 8.26283L5.33363 7.5962C5.15505 7.40795 4.85857 7.39733 4.667 7.57241C4.48258 7.76562 4.48258 8.06962 4.667 8.26283L5.6431 9.26276C5.72758 9.35737 5.84962 9.40968 5.97639 9.40562C6.10198 9.40385 6.22178 9.35249 6.30968 9.26276L8.16668 7.501C8.35078 7.33212 8.36308 7.04595 8.19416 6.86189C8.1855 6.85228 8.17634 6.84312 8.16677 6.83437Z" fill="#6C757D"/>
<path d="M14.9996 7.85809H9.52388C9.2609 7.85809 9.04773 8.07126 9.04773 8.33424C9.04773 8.59722 9.2609 8.81039 9.52388 8.81039H14.9996C15.2626 8.81039 15.4758 8.59722 15.4758 8.33424C15.4758 8.07126 15.2626 7.85809 14.9996 7.85809Z" fill="#6C757D"/>
<path d="M8.16677 14.4528C7.98818 14.2645 7.69171 14.254 7.50014 14.429L5.97643 15.8812L5.33363 15.2146C5.15505 15.0264 4.85857 15.0158 4.667 15.1908C4.48258 15.384 4.48258 15.688 4.667 15.8812L5.6431 16.8812C5.72758 16.9758 5.84962 17.0281 5.97639 17.024C6.10198 17.0223 6.22178 16.9709 6.30968 16.8812L8.16668 15.1194C8.35078 14.9505 8.36308 14.6644 8.19416 14.4803C8.1855 14.4707 8.17634 14.4616 8.16677 14.4528Z" fill="#6C757D"/>
<path d="M14.9996 15.4765H9.52388C9.2609 15.4765 9.04773 15.6897 9.04773 15.9527C9.04773 16.2157 9.2609 16.4289 9.52388 16.4289H14.9996C15.2626 16.4289 15.4758 16.2157 15.4758 15.9527C15.4758 15.6897 15.2626 15.4765 14.9996 15.4765Z" fill="#6C757D"/>
</svg>
