<svg width="15" height="15" viewBox="0 0 15 15" fill="none" xmlns="http://www.w3.org/2000/svg">
<g clip-path="url(#clip0)">
<path d="M12.8805 5.02001H12.3805V4.518C12.3777 2.02392 10.3646 0.00276492 7.88049 0C5.39634 0.00276492 3.38324 2.02392 3.38048 4.518V5.02001H2.8805C2.60435 5.02001 2.38049 5.24476 2.38049 5.52202V13.554C2.38049 13.8312 2.60435 14.056 2.8805 14.056H12.8805C13.1567 14.056 13.3805 13.8312 13.3805 13.554V5.52199C13.3805 5.24476 13.1567 5.02001 12.8805 5.02001ZM4.3805 4.518C4.3805 2.57726 5.94751 1.00399 7.88052 1.00399C9.81353 1.00399 11.3805 2.57726 11.3805 4.518V5.02001H4.3805V4.518ZM12.3805 13.052H3.38048V6.024H12.3805V13.052Z" fill="#323232"/>
<path d="M9.29483 8.53338C9.08357 7.93121 8.51638 7.52883 7.88049 7.53003C7.054 7.52847 6.38272 8.19988 6.38117 9.02968C6.37997 9.66812 6.78075 10.2376 7.38051 10.4497V11.5461C7.38051 11.8233 7.60437 12.0481 7.88052 12.0481C8.15667 12.0481 8.3805 11.8233 8.3805 11.546V10.4497C9.16006 10.174 9.56943 9.31603 9.29483 8.53338ZM7.88049 9.53805C7.60434 9.53805 7.38048 9.31329 7.38048 9.03604C7.38048 8.75878 7.60434 8.53402 7.88049 8.53402C8.15664 8.53402 8.3805 8.75878 8.3805 9.03604C8.3805 9.31329 8.15664 9.53805 7.88049 9.53805Z" fill="#323232"/>
</g>
<defs>
<clipPath id="clip0">
<rect width="14" height="14.056" fill="white" transform="translate(0.880493)"/>
</clipPath>
</defs>
</svg>
