<svg width="16" height="16" viewBox="0 0 16 16" fill="none" xmlns="http://www.w3.org/2000/svg">
<path d="M15.4286 5.71429H14.4611C14.3812 5.48708 14.2893 5.26429 14.1857 5.04686L14.8714 4.36115C15.0945 4.13802 15.0945 3.77628 14.8714 3.55316L12.4446 1.13086C12.2214 0.907767 11.8597 0.907767 11.6366 1.13086L10.9509 1.81657C10.7341 1.71251 10.5121 1.6198 10.2857 1.53887V0.571439C10.2857 0.255837 10.0299 0 9.71427 0H6.2857C5.9701 0 5.71426 0.255837 5.71426 0.571439V1.53887C5.48695 1.61896 5.26396 1.7109 5.04626 1.8143L4.36054 1.12858C4.13739 0.905524 3.77568 0.905524 3.55255 1.12858L1.13083 3.55543C0.907734 3.77856 0.907734 4.1403 1.13083 4.36342L1.81654 5.04914C1.71224 5.26577 1.61956 5.48782 1.53884 5.71429H0.571439C0.255837 5.71429 0 5.97013 0 6.2857V9.71427C0 10.0299 0.255837 10.2857 0.571439 10.2857H1.53887C1.61879 10.5129 1.7107 10.7357 1.8143 10.9531L1.12858 11.6389C0.905524 11.862 0.905524 12.2237 1.12858 12.4468L3.55316 14.8714C3.77631 15.0945 4.13802 15.0945 4.36115 14.8714L5.04686 14.1857C5.26439 14.2891 5.48718 14.381 5.71429 14.4611V15.4286C5.71429 15.7442 5.97013 16 6.28573 16H9.7143C10.0299 16 10.2857 15.7442 10.2857 15.4286V14.4611C10.5131 14.381 10.736 14.2891 10.9537 14.1857L11.6395 14.8714C11.8626 15.0945 12.2243 15.0945 12.4474 14.8714L14.872 12.4468C15.0951 12.2237 15.0951 11.862 14.872 11.6389L14.1863 10.9531C14.2897 10.7357 14.3814 10.5129 14.4612 10.2857H15.4286C15.7442 10.2857 16 10.0299 16 9.71427V6.2857C16 5.97013 15.7442 5.71429 15.4286 5.71429ZM14.8571 9.14286H14.0428C13.7873 9.14286 13.5629 9.31248 13.4931 9.55827C13.3731 9.98497 13.2036 10.3961 12.988 10.7834C12.8618 11.0073 12.9006 11.2879 13.0828 11.4691L13.6543 12.0434L12.0406 13.6571L11.4663 13.0857C11.285 12.9035 11.0045 12.8646 10.7806 12.9908C10.3934 13.2063 9.98243 13.3758 9.556 13.496C9.30997 13.5655 9.14008 13.79 9.13998 14.0457V14.8571H6.85714V14.0428C6.85707 13.7872 6.68718 13.5627 6.44112 13.4931C6.01469 13.3729 5.60373 13.2034 5.21655 12.988C4.99265 12.8618 4.71207 12.9006 4.53083 13.0828L3.95939 13.6543L2.34281 12.0406L2.91428 11.4663C3.09649 11.285 3.13533 11.0045 3.00914 10.7806C2.79351 10.3933 2.62399 9.98213 2.50399 9.55543C2.43348 9.31178 2.21079 9.14377 1.95713 9.14286H1.14285V6.85714H1.95713C2.21263 6.85714 2.4371 6.68752 2.50684 6.44173C2.62684 6.01503 2.79636 5.60387 3.01198 5.21658C3.13818 4.99269 3.09934 4.71211 2.91713 4.53087L2.34569 3.95943L3.95939 2.34284L4.53083 2.91428C4.71207 3.09649 4.99265 3.13533 5.21655 3.00914C5.6037 2.79371 6.01469 2.62419 6.44112 2.50399C6.68614 2.43475 6.85577 2.21173 6.85714 1.95713V1.14285H9.14286V1.95713C9.14293 2.2128 9.31282 2.4373 9.55888 2.50684C9.98531 2.62704 10.3963 2.79656 10.7835 3.01198C11.0073 3.13818 11.2879 3.09934 11.4692 2.91713L12.0435 2.34569L13.6572 3.95939L13.0857 4.53083C12.9035 4.71207 12.8647 4.99265 12.9909 5.21655C13.2065 5.6038 13.376 6.015 13.496 6.44169C13.5657 6.68748 13.7902 6.8571 14.0457 6.8571H14.8572V9.14286H14.8571Z" fill="white"/>
<path d="M7.99998 4C5.79083 4 3.99998 5.79086 3.99998 8.00001C3.99998 10.2092 5.79087 12 7.99998 12C10.2091 12 12 10.2091 12 7.99997C11.9975 5.7919 10.2081 4.00251 7.99998 4ZM7.99998 10.8571C6.42204 10.8571 5.14285 9.57795 5.14285 8.00001C5.14285 6.42206 6.42204 5.14288 7.99998 5.14288C9.57793 5.14288 10.8571 6.42206 10.8571 8.00001C10.8552 9.57715 9.57716 10.8552 7.99998 10.8571Z" fill="white"/>
</svg>
