<svg width="15" height="14" viewBox="0 0 15 14" fill="none" xmlns="http://www.w3.org/2000/svg">
<g clip-path="url(#clip0)">
<path d="M9.16806 8.17035H6.59444C6.37908 8.17035 6.2045 8.34493 6.2045 8.56029V13.61C6.2045 13.8254 6.37908 14 6.59444 14H9.16806C9.38342 14 9.558 13.8254 9.558 13.61V8.56029C9.558 8.34493 9.38342 8.17035 9.16806 8.17035ZM8.77811 13.2201H6.98439V8.95024H8.77811V13.2201Z" fill="#323232"/>
<path d="M14.2763 5.10931H11.6832C11.4678 5.10931 11.2932 5.28389 11.2932 5.49926V13.61C11.2932 13.8254 11.4678 14 11.6832 14H14.2763C14.4917 14 14.6662 13.8254 14.6662 13.61V5.49926C14.6662 5.28393 14.4917 5.10931 14.2763 5.10931ZM13.8864 13.2201H12.0731V5.8892H13.8864V13.2201Z" fill="#323232"/>
<path d="M4.07932 10.0615H1.48619C1.27083 10.0615 1.09625 10.2361 1.09625 10.4515V13.61C1.09625 13.8254 1.27083 13.9999 1.48619 13.9999H4.07932C4.29468 13.9999 4.46926 13.8254 4.46926 13.61V10.4515C4.46926 10.2361 4.29468 10.0615 4.07932 10.0615ZM3.68938 13.2201H1.87614V10.8414H3.68938V13.2201Z" fill="#323232"/>
<path d="M14.7053 0.391178C14.646 0.30945 14.5527 0.259219 14.4518 0.254704L10.9033 0.00123621C10.6879 -0.0149227 10.5003 0.146592 10.4841 0.36192C10.4679 0.577285 10.6294 0.76496 10.8448 0.781119L13.3562 0.951665L8.73912 4.56358L5.21016 1.79499C5.05947 1.67564 4.84432 1.68393 4.70322 1.81447L1.07678 5.28491C0.922621 5.43116 0.913963 5.67395 1.0573 5.83084C1.12687 5.92111 1.23591 5.97202 1.34977 5.96731C1.45262 5.96586 1.55073 5.9238 1.62272 5.85032L4.99573 2.6138L8.48569 5.36287C8.62813 5.47691 8.83066 5.47691 8.97311 5.36287L13.9644 1.47883L13.7694 3.90065C13.7684 4.1124 13.9291 4.28992 14.1398 4.31007H14.1593C14.3603 4.31108 14.5291 4.15912 14.5493 3.95913L14.8027 0.664125C14.817 0.562656 14.7806 0.460627 14.7053 0.391178Z" fill="#323232"/>
</g>
<defs>
<clipPath id="clip0">
<rect width="14" height="14" fill="white" transform="translate(0.880493)"/>
</clipPath>
</defs>
</svg>
