<svg width="18" height="18" viewBox="0 0 18 18" fill="none" xmlns="http://www.w3.org/2000/svg">
  <g clip-path="url(#clip0)">
      <path d="M16.5 12C15.6728 12 15 11.3272 15 10.5C15 9.67275 15.6728 9 16.5 9C17.3273 9 18 9.67275 18 10.5C18 11.3272 17.3273 12 16.5 12ZM16.5 10.125C16.2938 10.125 16.125 10.2937 16.125 10.5C16.125 10.7062 16.2938 10.875 16.5 10.875C16.7063 10.875 16.875 10.7062 16.875 10.5C16.875 10.2937 16.7063 10.125 16.5 10.125Z" fill="#84BA3F" />
      <path d="M16.5 18C15.6728 18 15 17.3273 15 16.5C15 15.6728 15.6728 15 16.5 15C17.3273 15 18 15.6728 18 16.5C18 17.3273 17.3273 18 16.5 18ZM16.5 16.125C16.2938 16.125 16.125 16.2938 16.125 16.5C16.125 16.7063 16.2938 16.875 16.5 16.875C16.7063 16.875 16.875 16.7063 16.875 16.5C16.875 16.2938 16.7063 16.125 16.5 16.125Z" fill="#84BA3F" />
      <path d="M11.25 15C10.4227 15 9.75 14.3272 9.75 13.5C9.75 12.6727 10.4227 12 11.25 12C12.0772 12 12.75 12.6727 12.75 13.5C12.75 14.3272 12.0772 15 11.25 15ZM11.25 13.125C11.0437 13.125 10.875 13.2937 10.875 13.5C10.875 13.7062 11.0437 13.875 11.25 13.875C11.4562 13.875 11.625 13.7062 11.625 13.5C11.625 13.2937 11.4562 13.125 11.25 13.125Z" fill="#84BA3F" />
      <path d="M15.6878 16.596C15.594 16.596 15.4995 16.5727 15.4125 16.5232L11.772 14.469C11.5013 14.316 11.406 13.9732 11.5583 13.7032C11.7105 13.4317 12.0548 13.338 12.324 13.4895L15.9645 15.5437C16.2353 15.6967 16.3305 16.0395 16.1783 16.3095C16.0755 16.4932 15.8843 16.596 15.6878 16.596Z" fill="#84BA3F" />
      <path d="M12.0615 13.5968C11.8658 13.5968 11.6753 13.4948 11.5725 13.3126C11.4188 13.0433 11.5125 12.6998 11.7825 12.5461L15.4095 10.4783C15.678 10.3223 16.0223 10.4183 16.176 10.6883C16.3298 10.9576 16.236 11.3011 15.966 11.4548L12.339 13.5226C12.2513 13.5736 12.156 13.5968 12.0615 13.5968Z" fill="#84BA3F" />
      <path d="M8.5575 15.75H2.0625C0.92475 15.75 0 14.8252 0 13.6875V2.0625C0 0.92475 0.92475 0 2.0625 0H10.6875C11.8253 0 12.75 0.92475 12.75 2.0625V10.3725C12.75 10.683 12.498 10.935 12.1875 10.935C11.877 10.935 11.625 10.683 11.625 10.3725V2.0625C11.625 1.54575 11.2043 1.125 10.6875 1.125H2.0625C1.54575 1.125 1.125 1.54575 1.125 2.0625V13.6875C1.125 14.2043 1.54575 14.625 2.0625 14.625H8.5575C8.868 14.625 9.12 14.877 9.12 15.1875C9.12 15.498 8.868 15.75 8.5575 15.75Z" fill="#84BA3F" />
      <path d="M9.93749 7.125H2.8125C2.502 7.125 2.25 6.873 2.25 6.5625C2.25 6.252 2.502 6 2.8125 6H9.93749C10.248 6 10.5 6.252 10.5 6.5625C10.5 6.873 10.248 7.125 9.93749 7.125Z" fill="#84BA3F" />
      <path d="M6.9375 10.125H2.8125C2.502 10.125 2.25 9.873 2.25 9.5625C2.25 9.252 2.502 9 2.8125 9H6.9375C7.248 9 7.5 9.252 7.5 9.5625C7.5 9.873 7.248 10.125 6.9375 10.125Z" fill="#84BA3F" />
      <path d="M6.1875 4.125H2.8125C2.502 4.125 2.25 3.873 2.25 3.5625C2.25 3.252 2.502 3 2.8125 3H6.1875C6.498 3 6.75 3.252 6.75 3.5625C6.75 3.873 6.498 4.125 6.1875 4.125Z" fill="#84BA3F" />
  </g>
  <defs>
      <clipPath id="clip0">
          <rect width="18" height="18" fill="white" />
      </clipPath>
  </defs>
</svg>