<svg width="14" height="14" viewBox="0 0 14 14" fill="none" xmlns="http://www.w3.org/2000/svg">
<path d="M13.1797 3.30859V2.48828H8.15992C8.03614 2.13927 7.75917 1.8623 7.41016 1.73852V0H6.58984V1.73852C6.24083 1.8623 5.96386 2.13927 5.84008 2.48828H0.820312V3.30859H1.8457L0 7.73828V7.82031C0 8.95111 0.91998 9.87109 2.05078 9.87109H2.87109C4.00189 9.87109 4.92188 8.95111 4.92188 7.82031V7.73828L3.07617 3.30859H5.84008C5.96386 3.65761 6.24083 3.93457 6.58984 4.05836V9.93973C5.7759 10.1056 5.13628 10.7553 4.98422 11.5741C4.03205 11.7509 3.30859 12.5872 3.30859 13.5898V14H10.6914V13.5898C10.6914 12.5872 9.96797 11.7509 9.01581 11.5741C8.86372 10.7552 8.2241 10.1056 7.41016 9.9397V4.05836C7.75917 3.93457 8.03614 3.65761 8.15992 3.30859H10.9238L9.07812 7.73828V7.82031C9.07812 8.95111 9.99811 9.87109 11.1289 9.87109H11.9492C13.08 9.87109 14 8.95111 14 7.82031V7.73828L12.1543 3.30859H13.1797ZM2.46094 3.96484L3.89648 7.41016H1.02539L2.46094 3.96484ZM2.87109 9.05078H2.05078C1.5161 9.05078 1.06017 8.70784 0.890859 8.2302H4.03102C3.8617 8.70784 3.40577 9.05078 2.87109 9.05078ZM11.5391 3.96484L12.9746 7.41016H10.1035L11.5391 3.96484ZM11.9492 9.05078H11.1289C10.5942 9.05078 10.1383 8.70784 9.96898 8.2302H13.1091C12.9398 8.70784 12.4839 9.05078 11.9492 9.05078ZM9.80082 13.1797H4.19918C4.36846 12.7022 4.82464 12.3594 5.35938 12.3594H8.64065C9.17539 12.3594 9.63153 12.7022 9.80082 13.1797ZM8.15992 11.5391H5.84008C6.00939 11.0617 6.46532 10.7188 7.00003 10.7188C7.53471 10.7188 7.99061 11.0617 8.15992 11.5391ZM7 3.30859C6.77384 3.30859 6.58984 3.1246 6.58984 2.89844C6.58984 2.67228 6.77384 2.48828 7 2.48828C7.22616 2.48828 7.41016 2.67228 7.41016 2.89844C7.41016 3.1246 7.22616 3.30859 7 3.30859Z" fill="white" fill-opacity="0.8"/>
</svg>
