<svg width="14" height="14" viewBox="0 0 14 14" fill="none" xmlns="http://www.w3.org/2000/svg">
<g clip-path="url(#clip0)">
<path d="M12.8609 8.9265C13.0703 8.30732 13.1765 7.66011 13.1765 6.99505C13.1765 5.3819 12.5483 3.86534 11.4076 2.7247C10.2669 1.58406 8.7504 0.955841 7.13725 0.955841H6.86274C5.24958 0.955841 3.73303 1.58403 2.59239 2.7247C1.45174 3.86537 0.823529 5.3819 0.823529 6.99505C0.823529 7.66011 0.929681 8.30732 1.13908 8.9265H0V13.0441H14V8.9265H12.8609ZM1.64706 6.99505C1.64706 4.1191 3.98678 1.77937 6.86274 1.77937H7.13725C10.0132 1.77937 12.3529 4.1191 12.3529 6.99505C12.3529 7.6648 12.2286 8.31328 11.9835 8.9265H10.7212C10.6169 8.38124 10.3758 7.86651 10.0169 7.43589C9.63229 6.97433 9.13683 6.63372 8.58523 6.43912C9.00666 6.03015 9.26928 5.4584 9.26928 4.82618C9.26928 3.58611 8.26043 2.57726 7.02036 2.57726C5.78032 2.57726 4.77147 3.58611 4.77147 4.82618C4.77147 5.45423 5.03055 6.02268 5.44709 6.43107C4.89278 6.62208 4.39366 6.96005 4.00567 7.41953L3.9968 7.43007C3.6325 7.86149 3.38739 8.37811 3.28072 8.9265H2.01649C1.77141 8.31328 1.64706 7.6648 1.64706 6.99505ZM7.02039 6.25154C6.23444 6.25154 5.59503 5.61213 5.59503 4.82618C5.59503 4.0402 6.23444 3.40079 7.02039 3.40079C7.80636 3.40079 8.44578 4.0402 8.44578 4.82618C8.44578 5.61213 7.80636 6.25154 7.02039 6.25154ZM7.48832 7.07507C8.22293 7.07507 8.91401 7.39875 9.38427 7.96311C9.61925 8.24506 9.78662 8.57516 9.87743 8.92653H4.12516C4.21792 8.57401 4.38795 8.24339 4.62614 7.96133L4.63504 7.95079C5.10497 7.39427 5.79226 7.0751 6.52064 7.0751H7.48832V7.07507ZM13.1765 12.2206H0.823529V9.75003H13.1765V12.2206Z" fill="white" fill-opacity="0.8"/>
<path d="M6.58824 10.5735H7.41175V11.3971H6.58824V10.5735Z" fill="white" fill-opacity="0.8"/>
<path d="M4.52941 10.5735H5.35294V11.3971H4.52941V10.5735Z" fill="white" fill-opacity="0.8"/>
<path d="M2.47058 10.5735H3.29411V11.3971H2.47058V10.5735Z" fill="white" fill-opacity="0.8"/>
<path d="M8.64704 10.5735H9.47058V11.3971H8.64704V10.5735Z" fill="white" fill-opacity="0.8"/>
<path d="M10.7059 10.5735H11.5294V11.3971H10.7059V10.5735Z" fill="white" fill-opacity="0.8"/>
</g>
<defs>
<clipPath id="clip0">
<rect width="14" height="14" fill="white"/>
</clipPath>
</defs>
</svg>
