<svg width="14" height="14" viewBox="0 0 14 14" fill="none" xmlns="http://www.w3.org/2000/svg">
<path d="M9.22048 0H1.66797V14H12.332V3.11049C12.1851 2.96357 9.31536 0.0948555 9.22048 0ZM10.9314 2.87066L9.46094 2.87098V1.39986C9.84534 1.78426 10.264 2.20317 10.9314 2.87066ZM3.07196 13.1797L5.15356 11.1088L6.38477 12.34L9.46094 9.26384V10.3359H10.2812V7.875H7.82031V8.69531H8.86938L6.38477 11.1799L5.15504 9.9502L2.48828 12.6033V0.820312H8.64062V3.69152L11.5117 3.69086V13.1797H3.07196Z" fill="white"/>
<path d="M3.71875 2.87109H6.9909V3.69141H3.71875V2.87109Z" fill="white"/>
<path d="M3.71875 4.91469H6.9909V5.735H3.71875V4.91469Z" fill="white"/>
</svg>
