<svg width="18" height="18" viewBox="0 0 18 18" fill="none" xmlns="http://www.w3.org/2000/svg">
<path d="M17.4595 1.7027H0.540541C0.243243 1.7027 0 1.94594 0 2.24324C0 2.54054 0.243243 2.78378 0.540541 2.78378H17.4595C17.7568 2.78378 18 2.54054 18 2.24324C18 1.94594 17.7568 1.7027 17.4595 1.7027Z" fill="#323232"/>
<path d="M17.4595 6.18918H5.62163C5.32433 6.18918 5.08109 6.43242 5.08109 6.72972C5.08109 7.02702 5.32433 7.27026 5.62163 7.27026H17.4595C17.7568 7.27026 18 7.02702 18 6.72972C18 6.43242 17.7568 6.18918 17.4595 6.18918Z" fill="#323232"/>
<path d="M17.4595 10.7297H0.540541C0.243243 10.7297 0 10.973 0 11.2703C0 11.5676 0.243243 11.8108 0.540541 11.8108H17.4595C17.7568 11.8108 18 11.5676 18 11.2703C18 10.973 17.7568 10.7297 17.4595 10.7297Z" fill="#323232"/>
<path d="M17.4595 15.2162H9.83784C9.54055 15.2162 9.2973 15.4595 9.2973 15.7568C9.2973 16.0541 9.54055 16.2973 9.83784 16.2973H17.4595C17.7568 16.2973 18 16.0541 18 15.7568C18 15.4595 17.7568 15.2162 17.4595 15.2162Z" fill="#323232"/>
</svg>
