<svg width="20" height="20" viewBox="0 0 20 20" fill="none" xmlns="http://www.w3.org/2000/svg">
<g clip-path="url(#clip0)">
<path d="M8.28889 8.80001C10.7067 8.80001 12.6667 6.84001 12.6667 4.42225C12.6667 2.00449 10.7067 0.0444489 8.28889 0.0444489C5.87109 0.0444489 3.91113 2.00445 3.91113 4.42221C3.91113 6.84001 5.87113 8.80001 8.28889 8.80001ZM8.28889 0.93334C10.2158 0.93334 11.7778 2.49539 11.7778 4.42221C11.7778 6.34907 10.2157 7.91108 8.28889 7.91108C6.36203 7.91108 4.80002 6.34903 4.80002 4.42221C4.80002 2.49534 6.36207 0.93334 8.28889 0.93334Z" fill="#6C757D"/>
<path d="M15.3333 12.9778C14.057 12.9778 13.0223 14.0126 13.0223 15.289C13.0224 16.5654 14.0572 17.6 15.3335 17.6C16.6099 17.5999 17.6446 16.5652 17.6445 15.2888C17.6445 15.2814 17.6445 15.274 17.6444 15.2667C17.6322 13.999 16.6011 12.9777 15.3333 12.9778ZM15.3333 16.6889C14.5478 16.6889 13.9111 16.0521 13.9111 15.2667C13.9111 14.4812 14.5478 13.8444 15.3333 13.8444C16.1188 13.8444 16.7556 14.4812 16.7556 15.2667C16.7556 16.0521 16.1188 16.6889 15.3333 16.6889Z" fill="#6C757D"/>
<path d="M19.4222 15.6C19.4486 15.326 19.4411 15.0499 19.4 14.7778L19.9556 14.2444L19.2222 12.5555L18.4444 12.6C18.2631 12.3965 18.0702 12.2035 17.8667 12.0222V11.2666L16.1333 10.6L15.6222 11.1778C15.3705 11.1518 15.1164 11.1593 14.8667 11.2C13.9973 10.2258 12.849 9.54297 11.5778 9.24442C11.4551 9.22255 11.3287 9.24625 11.2223 9.31107C9.4565 10.5555 7.0991 10.5555 5.33335 9.31107C5.22863 9.24195 5.10047 9.21792 4.9778 9.24442C2.07561 9.95577 0.025904 12.5454 3.39215e-07 15.5333V16.2C-0.000297404 16.4493 0.195448 16.6548 0.444446 16.6666H10.8667L11.4445 18.0222L12.2223 17.9555C12.3981 18.1574 12.5914 18.3433 12.8001 18.5111V19.2889L14.5334 19.9555L15.0445 19.3777C15.3187 19.3922 15.5937 19.3848 15.8668 19.3555L16.3778 19.9111L18.089 19.1555L18.0001 18.4C18.2147 18.2224 18.4085 18.0212 18.5779 17.8H19.3334L20.0001 16.0666L19.4222 15.6ZM11.3334 12.7556L10.6667 14.4889L11.2445 14.9778C11.2222 15.2514 11.2222 15.5264 11.2445 15.8H0.888892V15.5334C0.915732 13.0369 2.57918 10.8571 4.97517 10.1692C5.95917 10.8128 7.1105 11.1567 8.28892 11.1556C9.46867 11.1565 10.6206 10.8075 11.6012 10.1559C12.2507 10.3381 12.8606 10.6394 13.4 11.0445L12.6 11.4L12.6667 12.1556C12.4521 12.3331 12.2582 12.5344 12.0889 12.7556H11.3334ZM18.7333 16.9111H18.1111L17.9778 17.1333C17.784 17.4092 17.5521 17.6561 17.2889 17.8667L17.0889 18L17.1333 18.6223L16.5778 18.8667L16.1555 18.4223L15.9111 18.4667C15.5738 18.5296 15.2285 18.5371 14.8888 18.4889H14.6444L14.2444 18.9334L13.6888 18.7112V18.0667L13.4888 17.9334C13.2079 17.7371 12.9603 17.497 12.7555 17.2223L12.6 17.0223L12 17.0667L11.7778 16.5112L12.2222 16.0889L12.1778 15.8667C12.1077 15.5231 12.0927 15.1706 12.1333 14.8223L12.1778 14.6001L11.7111 14.2001L11.9333 13.6445H12.5555L12.6889 13.4446C12.8708 13.1593 13.1044 12.9105 13.3778 12.7112L13.5778 12.5779L13.5333 11.9556L14.0889 11.7112L14.5111 12.1556L14.7556 12.1112C15.0928 12.0478 15.4381 12.0404 15.7778 12.089H16.0223L16.4001 11.6445L16.9778 11.8445V12.4668L17.1778 12.6001C17.4579 12.7989 17.6989 13.0474 17.8889 13.3334L18.0445 13.5112L18.6445 13.4668L18.8889 14.0223L18.4445 14.4668L18.4889 14.689C18.5592 15.0251 18.5743 15.3703 18.5334 15.7112L18.4889 15.9557L18.9556 16.3557L18.7333 16.9111Z" fill="#6C757D"/>
</g>
<defs>
<clipPath id="clip0">
<rect width="20" height="20" fill="white"/>
</clipPath>
</defs>
</svg>
